<svg xmlns="http://www.w3.org/2000/svg" version="1.1" viewBox="0 0 669 378.5"><g><path fill="#e64980" stroke="none" stroke-width="0" d="M29.446477148681872 -3.8515559770166874 L175.29143342748284 -1.4670219756662846 L192.95643136277795 4.898312654346226 L197.1376379467547 13.546327795833346 L203.44528267160058 25.989840831607573 L200.1888137795031 84.97995039448139 L197.82221076264977 104.70916136726734 L194.38929686322808 111.5223223827779 L176.97295782342553 116.39709457382557 L30.402173135429614 117.54942032322285 L12.494203541427847 110.69914826378223 L7.8983410336077196 102.19503327831623 L3.7951276041567326 91.85458024963734 L4.318230245262384 22.331231560558074 L4.573972199112175 9.438585843890902 L7.5163329578936064 3.1347729824483377 L27.677417013794177 1.846672859042883" transform="translate(10 10) rotate(0 101.5 58.5)"/><path fill="none" stroke="#000" stroke-width="2" d="M25.99557885900139 1.8371028564870358 M29.032947745174162 2.670607302337885 C69.12113871914335 -3.520246674800292, 110.91803559521213 -1.0132535002473744, 176.51346930488944 3.4268163181841373 M31.12957529909908 0.979262812063098 C74.05511452550999 0.47657397807575785, 113.52830885751175 1.7091051083896311, 171.91867338307202 0.03287426941096783 M173.75 0 C196.46689936891198 2.9494367502629757, 199.26137194409966 6.435113634914156, 200.74771747365594 29.320170845836394 M176.8702709414065 2.5986126326024532 C195.6663482842967 1.9480312855914237, 203.21818678360432 7.844231364317235, 200.27494660597296 29.7976169200614 M199.62189146503806 28.572908852249377 C198.06663015055472 45.578847651043894, 203.02127065825277 57.32792380945755, 199.02597412094474 89.5467921234667 M204.85851614363492 29.682769400998943 C201.96108099778183 41.99871385670266, 204.7192753847409 55.893132357206184, 201.2487609256059 89.6886399220675 M203 87.74999999999997 C204.7750389315188 110.154263343662, 192.9458619095385 115.95023533329365, 173.92535624280572 117.62119647487995 M201.80977341905236 90.32271107658741 C200.37562668900938 110.12590517122295, 197.26852010469884 112.98397391755131, 177.58683464508505 119.64515289980915 M172.5976607464254 116.43189070001242 C145.00209420430474 117.30386731275354, 112.6938468455337 118.82137379297052, 30.836925592273467 119.48526463285086 M175.71887330897152 116.48349736444649 C136.7709331013728 115.27619173570534, 101.65556010873988 116.29289492412468, 28.195860492065542 116.63181249611077 M29.249999999999993 116.99999999999997 C10.167788479477164 116.06769284233448, -3.3988076709210873 107.4049169681966, -1.5580004714429379 89.50924297794697 M27.246971819549792 116.82670148834583 C10.679179233126339 119.41076224166898, -0.8958323957398533 104.52442524153736, 3.113675534538925 87.58172772843388 M1.6956071518361568 88.40282628312704 C0.6156263319868593 63.530817482015095, 3.7382203308958557 44.92489525927229, -2.9120747186243534 28.491257283836596 M0.6164085138589144 86.40537248365578 C1.300295916153118 70.14521472700869, -1.5004620284307748 55.06533765578641, 1.212608801200986 31.089442772790782 M0 29.249999999999993 C2.1129214502871037 10.581326808780428, 10.726386640220877 3.159510102123022, 28.73417076840996 -3.592838082462549 M0.712139580398798 28.939685430377715 C-4.066304630227386 7.159194293804463, 13.76775623541325 -4.088760366849601, 25.5762212274596 2.224870702810585" transform="translate(10 10) rotate(0 101.5 58.5)"/></g><g><text x="0" y="19" fill="#fff" direction="ltr" font-family="Consolas, Segoe UI Emoji" font-size="20" text-anchor="start" transform="translate(37 54.5) rotate(0 76 12)" style="white-space:pre">SignupService</text></g><g><path fill="#e64980" stroke="none" stroke-width="0" d="M27.164946880191557 0.4008537270128727 L171.3602566383779 -3.30180886015296 L193.95873030647635 2.8706239201128465 L198.5747477672994 8.274475309997793 L205.85393890365958 22.23481855168938 L205.50833984836936 87.82282063737509 L202.01170548424125 103.80886730924246 L192.29482194408774 113.12350055947897 L171.44472536072135 119.08788738027212 L29.661733116954558 119.76928851380941 L7.751631345599886 109.99668345227835 L3.219424929469822 102.23577043786642 L2.2185562513768673 93.17881021276114 L-1.77721980586648 20.86181351915001 L2.2956953905522806 10.73875984922051 L8.21574422344565 4.415972445160149 L32.45668157562613 -2.2736629508435726" transform="translate(408.5 13.5) rotate(0 101.5 58.5)"/><path fill="none" stroke="#000" stroke-width="2" d="M29.265699829906218 -2.153510596603155 M31.589887831360095 -3.2744924165308475 C73.179155460326 1.6435958656016738, 111.74178505828604 -2.319408127432689, 176.17084965482354 0.8336879871785641 M31.242328388616436 -0.3163530956953764 C84.5868127994705 -1.8970093183312566, 136.32629957543688 -0.32894897983409477, 172.63270894996822 -0.7562760841101408 M173.75 0 C190.32192715629935 2.995761726051569, 203.41427823528647 7.374695513397452, 206.59428783878684 33.118266079574816 M171.4271272085607 0.6074844337999821 C195.70718443710356 4.349963426403701, 199.28455593306572 6.349445015005764, 207.46326955277473 30.13458198886364 M200.74978825822473 25.27901276573538 C199.0491885745246 43.61822679578326, 200.32976420757362 57.55860278261824, 201.72518214955926 87.01754137501118 M204.16737733595073 27.721383677795522 C204.31519860978239 52.19481463679111, 204.28258157725446 76.39174298653377, 204.0388255547732 88.89835445769128 M203 87.74999999999997 C204.82628377899528 103.79429588094351, 190.95646902546287 117.96632811799643, 174.1860544346273 117.78361389413473 M200.62458380684257 88.03494009748098 C199.51057254392654 102.69726787786928, 188.71773262936622 115.92175213675944, 176.4449623318389 117.52672019582239 M169.8956658579409 120.43662866577503 C143.53333947476932 115.7620055890735, 112.94857427934184 113.74185743100007, 29.314808223396533 117.35775157436726 M173.87812422029674 117.68423794396219 C141.9924783020746 117.61631420076822, 109.21301638958975 115.89812728584741, 27.327075643464916 115.51838569529352 M29.249999999999993 116.99999999999997 C8.603696431964632 119.78046736493704, -0.05982712283730507 107.33495352044699, 1.9917950294911861 89.68786856904623 M26.041385497897856 113.96936902776358 C7.9075649293139545 117.21670291405168, 0.06636419016867912 109.11582363229242, -4.125809946469962 83.17807394843545 M0.30779406800866127 89.27745684608814 C4.283266070215031 70.44898263723587, -0.5145121785718949 62.94090866642071, 1.3137513138353825 29.339670147746794 M-0.16400517709553242 87.05609642155466 C0.45232830633409327 68.3084414733108, -1.5094955743383616 50.873883525188994, 1.162009997293353 28.634579347446554 M0 29.249999999999993 C2.4207666777074337 6.578299615532156, 12.600741352885958 0.13584515824913979, 31.309361185878508 -0.5761964581906796 M-2.6183661557734013 30.097294662147753 C0.6610033901408316 11.444645488075908, 5.582354912348088 0.003973954729735496, 33.57473201472311 1.9390826998278499" transform="translate(408.5 13.5) rotate(0 101.5 58.5)"/></g><g><path fill="#e64980" stroke="none" stroke-width="0" d="M25.836597416549914 -0.3561057187616825 L176.17084965482354 0.8336879871785641 L194.5270478464663 4.126596774905918 L201.6404214836657 15.410438027232882 L201.91026255860925 25.033966626971953 L203.18508181348443 85.83421870693562 L202.20792124047875 103.33963664993641 L190.06166658177972 116.48100658878681 L177.61826607957482 114.07192715629932 L32.24576172605156 117.41427823528645 L9.050476763397452 110.56384595856068 L4.72076568379998 109.45532270893452 L1.2262329794466496 96.74215086922047 L4.239608142524958 19.163710322231047 L1.1562769152224046 9.86953720077872 L9.969281289726492 1.4036988876759988 L26.99978825822472 -3.970987234264612" transform="translate(416.5 251.5) rotate(0 101.5 58.5)"/><path fill="none" stroke="#000" stroke-width="2" d="M25.72521481290459 -0.9057662822306156 M28.5175413750112 3.489713165909052 C68.43702458185143 0.92441888413392, 102.07034064391627 -2.1361767474655062, 174.073021735996 0.5822182632982731 M30.398354457691305 0.21802721731364727 C73.9230649083387 -0.5879610371496526, 116.08466386301441 -2.6478684139158575, 174.23316405899823 -1.1877080965787172 M173.75 0 C193.7080175615847 -3.034284744411707, 199.04110250249505 5.808897938579317, 203.284940097481 31.593445505946868 M172.81239316239953 -3.219657812267542 C188.81751573663206 3.952122965641319, 204.72767447214574 8.324444946832951, 202.8824056385085 29.25257644373923 M203.35775157436728 26.276246283203356 C199.9808563445788 51.01360213891601, 202.3027682756167 73.43037465112282, 204.6995860002935 88.46582016721365 M201.51838569529355 30.245897514745586 C203.17317233820447 48.208962139254425, 203.59447173614987 68.28431428512556, 203.0424767602235 86.1456927489489 M203 87.74999999999997 C199.02441212907434 105.6478825472295, 193.4384373165667 117.057707991451, 170.7193690277636 113.41233917698261 M204.62245533242822 85.2913516424596 C203.35396317820997 109.00657537300137, 197.699830150418 113.15119082648305, 172.12290314417334 115.807672390528 M173.8396701477468 117.46770188584921 C134.1914349536877 119.70228080579076, 93.42939589610322 116.5613781673554, 30.41072973236441 114.58491096273062 M173.13457934744656 118.02968059293923 C140.09294315059668 119.88948778494259, 105.42623256715014 120.10447512253185, 29.317922579124563 115.69081692211327 M29.249999999999993 116.99999999999997 C11.436158869415518 117.57478555664417, 1.4736047722399235 103.62596079334614, 0.8472946621477604 91.51063653454182 M29.25345561280846 115.80588587746021 C8.115788274817165 112.7658136995509, -1.2069089772179722 102.94676071126011, -1.2452304841950537 92.02929742056874 M-0.11385134235024452 88.03185341134665 C-3.470666798530146 77.0566895009484, 3.1256439362186943 59.19014146579427, -3.4644455052912235 29.00101408734917 M-0.44105286709964275 89.68705223314461 C-1.1292149055469778 73.40932028242385, -1.8904029953945425 60.642557493690376, -0.08161176554858685 29.76846520416438 M0 29.249999999999993 C-2.7764687798917294 10.825525846332308, 6.4581283070147 2.0615079067647457, 26.91774043813347 3.498689141124487 M-0.9518325589597225 27.340546455234282 C0.994055479578674 6.602054742164906, 11.684459042362864 -1.7275661019608375, 25.53313170652836 1.4506058307364578" transform="translate(416.5 251.5) rotate(0 101.5 58.5)"/></g><g><g><path fill="none" stroke="#000" stroke-width="2" d="M-1.7865615244954822 0.8886510785669088 C29.594857399041455 -0.0672890744713972, 158.54521152613063 -2.3050798371970806, 191.07621350325644 -3.070773535360712 M2.4390665772557263 -1.0972492888569834 C33.20212667336067 -0.39881507847289566, 157.13701217840116 0.3975392462024936, 188.8795775845647 0.3967952949654876" transform="translate(215 68.97045385889055) rotate(0 94.64482598938048 -1.09106122839691)"/></g><g><path fill="none" stroke="#000" stroke-width="2" d="M161.91820444492896 10.655436000179515 C171.30976105073006 10.279157248075677, 181.68294150031807 3.6273024283790356, 192.34759847447276 -2.7668279523301305 M159.10705539351602 9.679575246151552 C171.6358079638219 7.332530009035969, 177.0037822969058 3.305285063974954, 188.88300233148038 1.7127536626261293" transform="translate(215 68.97045385889055) rotate(0 94.64482598938048 -1.09106122839691)"/></g><g><path fill="none" stroke="#000" stroke-width="2" d="M161.9988317367563 -9.865614207489001 C171.7487862540721 -2.0435164058154394, 182.08975120545597 -0.49596577446751766, 192.34759847447276 -2.7668279523301305 M159.18768268534336 -10.841474961516964 C171.29821904218218 -6.649817563056711, 176.64050908826437 -4.139964074509405, 188.88300233148038 1.7127536626261293" transform="translate(215 68.97045385889055) rotate(0 94.64482598938048 -1.09106122839691)"/></g></g><g><g><path fill="none" stroke="#000" stroke-dasharray="12 8" stroke-width="2.5" d="M-1.8084132429212332 -1.1156490508466959 C43.865741735416776 21.31982346979693, 226.16649602958623 112.23240998973029, 271.51751677635684 135.45539052123817" transform="translate(139.18714980278537 136.81040194004777) rotate(0 134.8545517667178 67.16987073519576)"/></g><g><path fill="none" stroke="#000" stroke-width="2.5" d="M240.13219565916023 134.36014162042255 C247.36762236727708 133.74285416848937, 257.56859141613063 132.06651369404568, 269.1028006257452 134.6920843468109" transform="translate(139.18714980278537 136.81040194004777) rotate(0 134.8545517667178 67.16987073519576)"/></g><g><path fill="none" stroke="#000" stroke-width="2.5" d="M249.37144444876893 116.03648794028676 C254.77935141386436 119.14297094210053, 263.0425243389261 121.3097464918736, 269.1028006257452 134.6920843468109" transform="translate(139.18714980278537 136.81040194004777) rotate(0 134.8545517667178 67.16987073519576)"/></g></g><g><g><path fill="none" stroke="#000" stroke-width="2" d="M-0.7729969378560781 -0.5351872507482769 C-1.2837892484983362 -16.575127254302302, -3.8499841189983273 -78.2383064571768, -3.7879186364683846 -93.72637891210616 M4.002851939499379 -3.294028425514698 C3.073731929354812 -18.963684438367686, -5.850846398805856 -82.23474837968747, -6.690265786391829 -98.04565286666156" transform="translate(531.8969951787585 237) rotate(0 -1.3437069234462342 -49.29042005870494)"/></g><g><path fill="none" stroke="#000" stroke-width="2" d="M5.621736221295779 -72.7938426692462 C4.13581226748506 -75.4297041449192, 0.9259450347054976 -83.48973686388462, -7.50364462335143 -96.65549174353481 M5.279828788992947 -73.0075073592788 C2.013017097332546 -78.30549458330849, -1.2179225463238836 -87.34962637463454, -8.044729738054013 -99.37506355188788" transform="translate(531.8969951787585 237) rotate(0 -1.3437069234462342 -49.29042005870494)"/></g><g><path fill="none" stroke="#000" stroke-width="2" d="M-14.792906083978806 -70.70521107570646 C-10.71918754162903 -73.80100074410926, -8.331917445708612 -82.43367919858593, -7.50364462335143 -96.65549174353481 M-15.134813516281639 -70.91887576573906 C-12.062474891938834 -77.21829185507696, -8.93038771474605 -86.9134278937384, -8.044729738054013 -99.37506355188788" transform="translate(531.8969951787585 237) rotate(0 -1.3437069234462342 -49.29042005870494)"/></g></g><g><text x="64.5" y="19" fill="#fff" direction="ltr" font-family="Consolas, Segoe UI Emoji" font-size="20" text-anchor="middle" transform="translate(448 47.5) rotate(0 64.5 24)" style="white-space:pre">(interface)</text><text x="64.5" y="43" fill="#fff" direction="ltr" font-family="Consolas, Segoe UI Emoji" font-size="20" text-anchor="middle" transform="translate(448 47.5) rotate(0 64.5 24)" style="white-space:pre">ApiClient</text></g><g><text x="0" y="19" fill="#fff" direction="ltr" font-family="Consolas, Segoe UI Emoji" font-size="20" text-anchor="start" transform="translate(455 300.5) rotate(0 58.5 12)" style="white-space:pre">HttpClient</text></g><g><text x="0" y="23" fill="#000" direction="ltr" font-family="Virgil, Segoe UI Emoji" font-size="20" text-anchor="start" transform="translate(566 172.5) rotate(0 46.5 16)" style="white-space:pre">Implement</text></g><g><text x="0" y="23" fill="#000" direction="ltr" font-family="Virgil, Segoe UI Emoji" font-size="20" text-anchor="start" transform="translate(274 17.5) rotate(0 32 16)" style="white-space:pre">Import</text></g><g><text x="0" y="23" fill="#000" direction="ltr" font-family="Virgil, Segoe UI Emoji" font-size="20" text-anchor="start" transform="translate(182 212.5) rotate(0 38.5 16)" style="white-space:pre">Execute</text></g><g><g><path fill="none" stroke="#000" stroke-width="2" d="M2.564611181989312 2.7463658060878515 C7.599860856309532 2.483394917473197, 24.89158998467028 1.2734833524872857, 29.02382566668093 1.088756355270743 M0.5123044672608374 1.768939147889614 C5.374608197907607 1.845654531419277, 23.226662752528984 -2.5356060066819195, 27.341607779562473 -3.330872739851475" transform="translate(510 164) rotate(0 14.768065066970905 -0.2922534668818173)"/></g></g></svg>