<svg xmlns="http://www.w3.org/2000/svg" version="1.1" viewBox="0 0 614.5 185"><g><path fill="#0A72EF" stroke="none" stroke-width="0" d="M27.01379189267754 -0.0015485621988773346 L170.99935409799218 -0.4283358193933964 L195.37588081136346 2.142645325511692 L202.32000777497888 11.72030600532889 L203.54743323102593 20.899494852870696 L204.09807417169213 84.88834175094959 L199.78137883916497 107.71138283237812 L194.62163922563195 110.92049797996876 L174.30720982328057 118.075379576534 L26.897538874298327 113.34900125488636 L14.065355870872732 111.79324289783833 L4.940421555191277 104.4638906382024 L3.8087466694414616 93.26048060879108 L-3.4655330441892147 20.2934864424169 L0.5793744064867479 10.208538021892306 L13.877917263656851 3.1707964800298196 L30.567668769508593 -2.810827050358057" transform="translate(10 26.5) rotate(0 101.5 58.499999999999986)"/><path fill="none" stroke="#000" stroke-width="2" d="M27.81745216622948 1.483516063541174 M30.982621755450957 3.384757373481989 C84.35227564466186 1.3072620450612158, 134.00619695940986 4.092678528940305, 170.38708969578147 -3.043294932693243 M27.973296986892812 0.26885430328547955 C78.47704696501604 1.3234729477856306, 123.06977284951134 -0.736497371485457, 172.02054517157376 1.4859770368784666 M173.75 0 C189.4319573380053 3.2626628540456295, 206.99862763658166 11.504645433276888, 206.1950943209231 27.64796527847647 M176.23970970883965 -3.2226446010172367 C189.64107965212315 -4.194112363271415, 204.20211252551525 12.523719147033987, 202.68083394151182 32.785190716572096 M204.26136192306876 28.451388452202075 C204.71415179627948 51.118042176822186, 201.04521518605762 72.73156861262393, 202.37674447521567 90.58256313577292 M203.29429029114544 30.936643881723278 C202.29370228161105 50.21380169815383, 203.69422111620196 72.09158932110293, 204.78924279101193 88.28876493684945 M203 87.74999999999997 C199.7799147106707 110.51299878582356, 189.4643904902041 117.84335264191029, 171.19453332200646 114.06798657402393 M200.47537765279412 85.70467802509663 C204.2935606477782 108.31602890212086, 195.9311342773959 112.43270417768505, 171.75239185672254 115.65731585342434 M176.61198624596 115.93807873502371 C131.68653855281883 120.2731869868282, 80.82709656646475 122.80202693262135, 26.084279503673308 120.50592181459066 M172.90807686932385 116.52855913154778 C120.98155645658261 114.94695631637235, 71.20236155958845 115.33204672708173, 31.094141887500875 115.57305155508217 M29.249999999999993 116.99999999999997 C9.894610974937674 113.51637121662495, 1.7549977041780949 110.74417838081715, -0.45676925405859947 87.04133733734486 M32.734620425850146 115.11257621273396 C13.465389025025067 117.74362698514011, -2.781800300069153 110.1677153619006, -4.408680385537445 90.73910972196606 M2.67609628662467 89.59385165944693 C-4.0999231247883285 74.88818348213097, -0.8416289000492541 60.699212234746646, 0.5575463436543941 30.569554541259997 M-0.9827065598219633 87.52165083400902 C1.5289496805798262 69.34558973708188, -1.2239662382472307 53.473527587298285, 0.18475417979061604 27.51901267282664 M0 29.249999999999993 C-3.1624304316937923 12.0706317089498, 12.963222716003653 1.4737242124974728, 28.271460030227892 -3.1028808690607548 M2.1414614655077457 31.736401524394743 C4.446066736988723 8.23746118266135, 9.188748246245083 1.8165944965556262, 25.901181667856864 2.390289119072258" transform="translate(10 26.5) rotate(0 101.5 58.499999999999986)"/></g><g><text x="0" y="19" fill="#fff" direction="ltr" font-family="Consolas, Segoe UI Emoji" font-size="20" text-anchor="start" transform="translate(39 71) rotate(0 76 12)" style="white-space:pre">SignupService</text></g><g><path fill="#0A72EF" stroke="none" stroke-width="0" d="M28.821664180606597 3.8016620613634586 L171.7793640755117 3.433289024978876 L191.8687435053289 5.117745731025932 L197.3916823528707 12.52385542169213 L199.68131050094962 23.289191339164965 L205.13716408237815 90.79742047563192 L196.9204979799688 106.13142857328054 L192.64959832653403 110.5342576242983 L170.0990012548864 119.63957462087271 L28.156524147838347 117.82714030519125 L10.315453138202425 116.23843416944143 L2.768293108791111 101.65165445581076 L-1.6440135575830936 91.07156190648672 L-0.760211978107691 24.846667263656848 L3.1707964800298196 12.743450019508597 L8.61495419964194 2.6807334162294847 L30.733516063541167 2.8039031960070133" transform="translate(401.5 29) rotate(0 101.5 58.499999999999986)"/><path fill="none" stroke="#000" stroke-width="2" d="M32.46117445454001 -1.3979048989713192 M29.54727575555443 -2.2020036317408085 C81.94178833100013 -4.535654493933544, 125.42489725043995 -0.06244022524915627, 177.23266873136163 -0.09766844287514687 M30.50290749780833 -0.9021732937544584 C62.56875790883787 -4.425931604364887, 98.9876184974797 -1.0989296154771, 172.94898263923824 -1.9090213309973478 M173.75 0 C195.0046454332769 2.489709708839655, 199.77735539898276 9.472464296966788, 206.26266285404563 33.24862763658165 M176.82407888397574 -3.138191606849432 C196.023719147034 2.5969464777037503, 201.0034252377227 12.28965011220425, 198.80588763672858 30.45211252551525 M204.01540372148156 27.80303963646292 C204.54269782421179 48.02148628770372, 205.59896925804205 70.69461052073163, 200.63038501515985 88.06506678089497 M202.53067861311138 30.63733349926769 C203.96202982182615 49.45004189261234, 204.5254516076576 64.79386486420407, 201.53399328701198 86.13995735533533 M203 87.74999999999997 C203.84335264191031 104.7253776527941, 191.20467802509665 115.26294944062826, 177.01299878582358 113.21439049020407 M201.8324485681951 88.87483534589407 C198.43270417768508 108.1133610365912, 192.55059729535134 120.13204390387979, 174.81602890212088 119.68113427739587 M175.05544636026025 116.20125612244007 C123.89536099252291 116.72328124768097, 69.87807118752971 122.2409138513263, 30.39933237805962 116.42322131618855 M172.11367891542614 118.1449265349656 C135.2316639452707 117.51161916197275, 97.78884079335258 115.43909264744256, 28.895668668672435 117.07230548746881 M29.249999999999993 116.99999999999997 C13.244178380817171 120.48462042585012, -1.887423787266016 103.41636488214132, -3.483628783375025 89.50499770417807 M31.849225845187895 120.23077306523916 C12.667715361900623 115.23823430519548, 2.6081460924819106 103.07003019433466, 0.7436269851401445 84.96819969993082 M2.447677109390497 87.57174738869068 C3.028872878877446 66.84375552446579, 0.7802279308717701 45.03967952327801, -0.5864657424390316 31.962146725505583 M-0.5366658139973879 86.35449253208932 C1.5926007472444326 73.25917086726983, -1.5974030650686473 57.90956339007242, -1.5514404345303774 27.668784784153097 M0 29.249999999999993 C1.4737242124974728 11.891461465507742, 12.236401524394747 -2.9120159409940243, 31.570631708949797 3.2132227160036564 M2.078512277454138 33.11614498868584 C1.8165944965556262 13.382943236641582, 5.152975925989446 1.0509234366938474, 27.73746118266135 -0.561251753754914" transform="translate(401.5 29) rotate(0 101.5 58.499999999999986)"/></g><g><g><path fill="none" stroke="#000" stroke-width="2" d="M2.4033023174852133 0.20616732873022547 C32.19972461087009 -0.7562065367888443, 151.58937692505626 -5.76760651270103, 181.43969720326373 -7.153688340256233 M0.26342793345451376 -2.1502242171764374 C29.509660517970737 -2.60003488190383, 149.60813238283006 -3.4362376467093974, 179.5833847427369 -4.092470430577415" transform="translate(216.26342793345452 63.95012440912055) rotate(0 90.8515625683591 -3.4737605057630034)"/></g><g><path fill="none" stroke="#000" stroke-width="2" d="M151.82755804016597 7.550498789757406 C161.22387434682358 2.959932243168251, 170.93830685590765 -1.446133257578225, 181.72054882511506 -1.0450499549454628 M150.35680272198624 4.7205349361746665 C159.85945704483464 3.1798623100084633, 165.9895157332839 0.5028259829104504, 181.25924245245764 -4.764964501181859" transform="translate(216.26342793345452 63.95012440912055) rotate(0 90.8515625683591 -3.4737605057630034)"/></g><g><path fill="none" stroke="#000" stroke-width="2" d="M151.55179460418805 -12.968856875399759 C160.85486802934517 -9.458159201436647, 170.67823855403435 -5.758226603739688, 181.72054882511506 -1.0450499549454628 M150.08103928600832 -15.798820728982498 C159.7100352774843 -12.19380898984882, 165.9092677018411 -9.723678199811925, 181.25924245245764 -4.764964501181859" transform="translate(216.26342793345452 63.95012440912055) rotate(0 90.8515625683591 -3.4737605057630034)"/></g></g><g><text x="0" y="23" fill="#000" direction="ltr" font-family="Virgil, Segoe UI Emoji" font-size="20" text-anchor="start" transform="translate(269 10) rotate(0 32 16)" style="white-space:pre">Import</text></g><g><text x="0" y="23" fill="#000" direction="ltr" font-family="Virgil, Segoe UI Emoji" font-size="20" text-anchor="start" transform="translate(259 143) rotate(0 38.5 16)" style="white-space:pre">Execute</text></g><g><g><path fill="none" stroke="#000" stroke-dasharray="12 8" stroke-width="2.5" d="M-1.8892700616270304 -0.9551447983831167 C26.30009838808328 -1.5173754986996453, 142.35039107097936 -3.705946089761953, 171.89470731019975 -4.783429348468781" transform="translate(215.61072993837297 121.79485520161688) rotate(0 85.00271862428633 -2.8692870734259515)"/></g><g><path fill="none" stroke="#000" stroke-width="2.5" d="M142.62040969574116 4.7977112004717775 C155.59172893798274 5.764049563315661, 162.9476884005563 0.17562378664112988, 172.35262854322792 -4.467589845508337" transform="translate(215.61072993837297 121.79485520161688) rotate(0 85.00271862428633 -2.8692870734259515)"/></g><g><path fill="none" stroke="#000" stroke-width="2.5" d="M142.0781500836498 -15.71633171892698 C155.05895706565238 -6.5674657352470245, 162.6310166012371 -3.9806815685908656, 172.35262854322792 -4.467589845508337" transform="translate(215.61072993837297 121.79485520161688) rotate(0 85.00271862428633 -2.8692870734259515)"/></g></g><g><text x="0" y="19" fill="#fff" direction="ltr" font-family="Consolas, Segoe UI Emoji" font-size="20" text-anchor="start" transform="translate(451.5 76.25) rotate(0 58.5 12)" style="white-space:pre">HttpClient</text></g></svg>